HIERARCHY
ROOT Hips
{
	OFFSET	0.00	0.00	0.00
	CHANNELS 6 Xposition Yposition Zposition Zrotation Xrotation Yrotation
	JOINT LeftUpLeg
	{
		OFFSET	 0.126116	-0.014019	-0.065224
		CHANNELS 3 Zrotation Xrotation Yrotation
		JOINT LeftLeg
		{
			OFFSET	 0.000000	 0.000000	 0.569914
			CHANNELS 3 Zrotation Xrotation Yrotation
			JOINT LeftFoot
			{
				OFFSET	 0.000000	 0.000000	 0.544423
				CHANNELS 3 Zrotation Xrotation Yrotation
				JOINT LeftToeBase
				{
					OFFSET	 0.000000	 0.000000	 0.207117
					CHANNELS 3 Zrotation Xrotation Yrotation
					End Site
					{
						OFFSET	 0.000000	 0.000000	 0.207117
					}
				}
			}
		}
	}
	JOINT RightUpLeg
	{
		OFFSET	-0.124023	-0.008373	-0.065224
		CHANNELS 3 Zrotation Xrotation Yrotation
		JOINT RightLeg
		{
			OFFSET	 0.000000	 0.000000	 0.570047
			CHANNELS 3 Zrotation Xrotation Yrotation
			JOINT RightFoot
			{
				OFFSET	 0.000000	 0.000000	 0.544354
				CHANNELS 3 Zrotation Xrotation Yrotation
				JOINT RightToeBase
				{
					OFFSET	 0.000000	 0.000000	 0.207540
					CHANNELS 3 Zrotation Xrotation Yrotation
					End Site
					{
						OFFSET	 0.000000	 0.000000	 0.207540
					}
				}
			}
		}
	}
	JOINT Spine
	{
		OFFSET	 0.000184	-0.007763	 0.117403
		CHANNELS 3 Zrotation Xrotation Yrotation
		JOINT Spine1
		{
			OFFSET	 0.000000	 0.000000	 0.137269
			CHANNELS 3 Zrotation Xrotation Yrotation
			JOINT Spine2
			{
				OFFSET	 0.000000	 0.000000	 0.156879
				CHANNELS 3 Zrotation Xrotation Yrotation
				JOINT LeftShoulder
				{
					OFFSET	 0.080501	-0.002496	 0.160144
					CHANNELS 3 Zrotation Xrotation Yrotation
					JOINT LeftArm
					{
						OFFSET	 0.000000	 0.000000	 0.164363
						CHANNELS 3 Zrotation Xrotation Yrotation
						JOINT LeftForeArm
						{
							OFFSET	 0.000000	 0.000000	 0.364576
							CHANNELS 3 Zrotation Xrotation Yrotation
							JOINT LeftHand
							{
								OFFSET	 0.000000	 0.000000	 0.360812
								CHANNELS 3 Zrotation Xrotation Yrotation
								JOINT LeftHandIndex1
								{
									OFFSET	 0.000000	 0.000000	 0.086006
									CHANNELS 3 Zrotation Xrotation Yrotation
									JOINT LeftHandIndex2
									{
										OFFSET	 0.000000	 0.000000	 0.047236
										CHANNELS 3 Zrotation Xrotation Yrotation
										JOINT LeftHandIndex3
										{
											OFFSET	-0.004284	-0.000551	 0.038166
											CHANNELS 3 Zrotation Xrotation Yrotation
											End Site
											{
												OFFSET	-0.004284	-0.000551	 0.038166
											}
										}
									}
								}
							}
						}
					}
				}
				JOINT Neck
				{
					OFFSET	 0.000000	 0.000000	 0.176489
					CHANNELS 3 Zrotation Xrotation Yrotation
					JOINT Head
					{
						OFFSET	 0.000000	-0.001747	 0.077940
						CHANNELS 3 Zrotation Xrotation Yrotation
						End Site
						{
							OFFSET	 0.000000	-0.001747	 0.077940
						}
					}
				}
				JOINT RightShoulder
				{
					OFFSET	-0.080363	 0.000306	 0.159706
					CHANNELS 3 Zrotation Xrotation Yrotation
					JOINT RightArm
					{
						OFFSET	 0.000000	 0.000000	 0.164196
						CHANNELS 3 Zrotation Xrotation Yrotation
						JOINT RightForeArm
						{
							OFFSET	 0.000000	 0.000000	 0.365611
							CHANNELS 3 Zrotation Xrotation Yrotation
							JOINT RightHand
							{
								OFFSET	 0.000000	 0.000000	 0.360648
								CHANNELS 3 Zrotation Xrotation Yrotation
								JOINT RightHandIndex1
								{
									OFFSET	 0.000000	 0.000000	 0.069977
									CHANNELS 3 Zrotation Xrotation Yrotation
									JOINT RightHandIndex2
									{
										OFFSET	 0.000000	 0.000000	 0.052305
										CHANNELS 3 Zrotation Xrotation Yrotation
										JOINT RightHandIndex3
										{
											OFFSET	 0.009002	-0.000782	 0.042196
											CHANNELS 3 Zrotation Xrotation Yrotation
											End Site
											{
												OFFSET	 0.009002	-0.000782	 0.042196
											}
										}
									}
								}
							}
						}
					}
				}
			}
		}
	}
}
MOTION
Frames:    5
Frame Time: 0.03333334
-0.057491	-2.238835	 1.241211	 4.434048	-1.444045	-2.896620	 0.269880	-7.466276	-171.285900	 0.614069	-28.600560	 0.101170	 23.655130	 70.446900	-27.029760	-2.370624	 31.407630	-0.065241	-4.365987	-29.425830	-176.618900	 10.446530	-52.200490	 8.895749	 9.404149	 67.023710	-5.183146	 2.358266	 33.102540	 0.105607	-4.925521	 8.812046	 1.981218	-1.494639	 1.979869	-0.794903	 1.487868	-1.963905	 0.776978	-93.843280	 58.925010	 175.595900	 26.022180	 45.995180	-22.573220	-1.401899	-2.911078	-26.007760	-2.017348	-28.643670	-7.396286	-4.869286	 19.243830	-2.786489	-3.887791	 21.392640	 2.209109	-4.808248	 5.545567	 0.146966	-0.103858	-5.041754	 0.169882	-0.706257	 2.229994	 2.763996	 89.808820	 61.611510	-179.936400	-20.330670	 52.290420	 12.617010	-1.564194	-1.865770	 9.583281	-4.707953	-14.447730	 0.684205	 6.299595	 25.483070	-0.560635	 1.800799	 45.376200	-6.917469	 0.433010	 24.683790	 3.615813
-0.058145	-2.251431	 1.241627	 5.031866	-1.127511	-2.851051	-0.373470	-7.200507	-171.411200	 0.915645	-28.479480	 0.268432	 23.386460	 70.566330	-27.067360	-2.369578	 31.585610	-0.069252	-5.576695	-30.499520	-176.680700	 10.740130	-50.709990	 8.946912	 12.716920	 70.648370	-9.260607	 2.358881	 33.013690	 0.103538	-5.622429	 8.657720	 1.918465	-1.616785	 1.744582	-0.910405	 1.754487	-1.943687	 0.956415	-93.953400	 59.013070	 175.350000	 26.477810	 45.171720	-23.130520	-1.982550	-2.769480	-27.239580	-2.300340	-29.629510	-8.569223	-4.869017	 19.249320	-2.786538	-3.883378	 21.449190	 2.204630	-4.808272	 5.545353	 0.146974	-0.070887	-5.081099	 0.186719	-0.333163	 2.155489	 2.661958	 89.774260	 61.655520	 179.981200	-19.957480	 52.596290	 12.037000	-1.763676	-1.776094	 8.965500	-4.789145	-14.991890	 0.548165	 6.292670	 24.728240	-0.536425	 1.905326	 44.539900	-7.010778	 0.558085	 24.136470	 3.552183
-0.058769	-2.263850	 1.241815	 5.498266	-0.691851	-2.845857	-0.835662	-7.030984	-171.496400	 1.079826	-28.331990	 0.345081	 23.163350	 70.657940	-26.967660	-2.368787	 31.717090	-0.072237	-6.753694	-31.692120	-176.773600	 11.199820	-49.090280	 9.093386	 16.057760	 73.372430	-13.353630	 2.358977	 32.998710	 0.103193	-6.115795	 8.378112	 1.824791	-1.729917	 1.546789	-0.935791	 1.961708	-1.934107	 1.071335	-94.068280	 59.018180	 175.104100	 26.635970	 44.370510	-23.449880	-2.210390	-2.800383	-28.536490	-2.246287	-30.725470	-9.131934	-4.865489	 19.345110	-2.793956	-3.876885	 21.532140	 2.198043	-4.805557	 5.577321	 0.145107	-0.047078	-5.099041	 0.219674	-0.050684	 2.101912	 2.614645	 89.730700	 61.708200	 179.877100	-19.622010	 52.877900	 11.455780	-2.120609	-1.729425	 8.459034	-5.028363	-15.581750	 0.376642	 6.281186	 23.897930	-0.546756	 2.002374	 43.738120	-7.097009	 0.729784	 23.376290	 3.466430
-0.059545	-2.279430	 1.241727	 6.009383	-0.192458	-2.861863	-1.354328	-6.755781	-171.589500	 1.256381	-28.137230	 0.426182	 22.921410	 70.840960	-26.848290	-2.367843	 31.870760	-0.075735	-8.006605	-33.047940	-176.913700	 11.535170	-46.939040	 9.046160	 23.402080	 76.359510	-21.672380	 2.359156	 32.972750	 0.102590	-6.636766	 8.051123	 1.721213	-1.847574	 1.361768	-0.943400	 2.161574	-1.940824	 1.181019	-94.198500	 59.017750	 174.826300	 26.745450	 43.361930	-23.870130	-2.453156	-2.841242	-30.080670	-2.244795	-32.059580	-9.719158	-4.860984	 19.465010	-2.802849	-3.869117	 21.631240	 2.190136	-4.802095	 5.618176	 0.142715	-0.021272	-5.119877	 0.257936	 0.230524	 2.042174	 2.565967	 89.678920	 61.770980	 179.752900	-19.224070	 53.201790	 10.677260	-2.551087	-1.699961	 8.011995	-5.333052	-16.330730	 0.152982	 6.267394	 22.935900	-0.561718	 2.109122	 42.826850	-7.191391	 0.928641	 22.483180	 3.369483
-0.059943	-2.294058	 1.241393	 6.224459	 0.211309	-3.029623	-1.553220	-6.291040	-171.513500	 1.354940	-27.761580	 0.466866	 23.049330	 71.176510	-27.055600	-2.366578	 32.076340	-0.080411	-8.341262	-34.187860	-176.785900	 11.748570	-44.821380	 8.886602	 27.834730	 76.781590	-26.983730	 2.360395	 32.788080	 0.098310	-6.898961	 7.709557	 1.787045	-1.920626	 1.402409	-0.934141	 2.326477	-1.984538	 1.246085	-94.293810	 58.978130	 174.628900	 26.671190	 42.415480	-24.304970	-2.893295	-2.728301	-31.444500	-2.307692	-33.457500	-9.507104	-4.852811	 19.655590	-2.811750	-3.859067	 21.759070	 2.179938	-4.795796	 5.692316	 0.138367	-0.012340	-5.155178	 0.289420	 0.419617	 1.997970	 2.575169	 89.611450	 61.853930	 179.590100	-18.803370	 53.479250	 9.990240	-3.174102	-1.714968	 7.672501	-5.847608	-16.987920	-0.355197	 6.251002	 21.974680	-0.594868	 2.192808	 42.090040	-7.265005	 1.140934	 21.514810	 3.268857
